<svg width="750" height="736" viewBox="0 0 750 736" fill="none" xmlns="http://www.w3.org/2000/svg">
<path d="M749.5 370.845C749.5 488.428 654.089 583.747 536.392 583.747C418.696 583.747 323.285 488.428 323.285 370.845C323.285 253.263 418.696 157.943 536.392 157.943C654.089 157.943 749.5 253.263 749.5 370.845Z" stroke="#B37600"/>
<path d="M587.158 522.598C587.158 640.18 491.747 735.5 374.051 735.5C256.354 735.5 160.943 640.18 160.943 522.598C160.943 405.016 256.354 309.696 374.051 309.696C491.747 309.696 587.158 405.016 587.158 522.598Z" stroke="#B37600"/>
<path d="M426.715 370.845C426.715 488.428 331.304 583.747 213.608 583.747C95.9111 583.747 0.5 488.428 0.5 370.845C0.5 253.263 95.9111 157.943 213.608 157.943C331.304 157.943 426.715 253.263 426.715 370.845Z" stroke="#B37600"/>
<path d="M587.158 213.402C587.158 330.984 491.747 426.304 374.051 426.304C256.354 426.304 160.943 330.984 160.943 213.402C160.943 95.82 256.354 0.5 374.051 0.5C491.747 0.5 587.158 95.82 587.158 213.402Z" stroke="#B37600"/>
<path d="M338.907 372.55L335.112 367.33C336.372 365.635 337.647 363.94 338.922 362.26H340.827L337.137 367.135C338.442 368.935 339.747 370.735 341.037 372.55H338.907ZM333.087 372.55V362.26H334.932V372.55H333.087ZM342.609 372.55V362.26H344.469V372.55H342.609ZM346.944 372.55V362.26H349.539L352.044 370.015H352.089L354.594 362.26H357.174V372.55H355.329V364.555H355.269L352.689 372.55H351.174L348.609 364.555H348.564V372.55H346.944ZM363.526 372.55V362.26H366.121L368.626 370.015H368.671L371.176 362.26H373.756V372.55H371.911V364.555H371.851L369.271 372.55H367.756L365.191 364.555H365.146V372.55H363.526ZM376.213 372.55V362.26H378.073V372.55H376.213ZM380.548 372.55V362.26H382.618L386.893 369.52H386.938V362.26H388.573V372.55H386.743L382.228 364.795H382.183V372.55H380.548ZM396.313 372.64C395.368 372.64 394.783 372.49 394.258 372.22V370.855C394.663 370.99 395.233 371.14 395.923 371.14C396.943 371.14 397.453 370.63 397.453 369.595V362.26H399.328V369.745C399.328 371.395 398.398 372.64 396.313 372.64ZM401.716 372.55V362.26H403.576V372.55H401.716ZM406.051 372.55V362.26H408.121L412.396 369.52H412.441V362.26H414.076V372.55H412.246L407.731 364.795H407.686V372.55H406.051Z" fill="#B37600"/>
<path d="M466.351 255.212H463.215V242.696H461.003V254.064H457.923V230.712H461.003V240.092H463.215V230.264H466.351V255.212ZM449.131 246.616C451.679 246.7 454.675 246.476 456.355 246.056L456.663 248.632C454.787 249.136 451.119 249.304 448.235 249.304H445.855V233.232H455.291V235.836C453.247 235.836 451.203 235.808 449.131 235.808V246.616ZM489.962 248.352H486.714V230.264H489.962V248.352ZM490.522 254.54H473.218V246.56H476.522V251.964H490.522V254.54ZM470.138 238.272C470.138 234.744 472.798 232.112 476.886 232.112C481.002 232.112 483.634 234.744 483.634 238.272C483.634 241.856 481.002 244.404 476.886 244.404C472.798 244.404 470.138 241.856 470.138 238.272ZM473.498 238.272C473.498 240.26 474.786 241.716 476.886 241.716C479.042 241.716 480.302 240.26 480.302 238.272C480.302 236.368 479.042 234.912 476.886 234.912C474.786 234.912 473.498 236.368 473.498 238.272ZM516.513 240.456H513.349V248.8H510.101V230.264H513.349V237.74H516.513V240.456ZM513.993 254.54H496.941V247.204H500.245V251.936H513.993V254.54ZM508.953 244.74C507.161 244.936 503.829 245.272 501.197 245.356C498.313 245.468 495.093 245.608 493.441 245.608L493.021 242.948C494.505 242.948 496.185 242.92 497.809 242.892V237.88H501.057V242.808C503.297 242.752 507.049 242.5 508.701 242.248L508.953 244.74ZM507.301 232.028C507.301 236.144 507.133 238.944 506.601 240.904L503.493 240.456C503.829 239.196 503.997 236.984 503.997 234.632H494.561V232.028H507.301ZM534.047 254.064H530.995V245.664H527.831V243.004H530.995V239.476H528.447V236.816H530.995V230.74H534.047V254.064ZM539.031 255.212H535.923V230.264H539.031V255.212ZM528.195 233.204C528.223 240.652 525.395 246.336 519.319 250.34L517.191 248.072C522.007 245.16 524.639 240.792 525.031 235.836H518.759V233.204H528.195ZM491.894 284.012H469.354V281.408H491.894V284.012ZM489.122 279.252H472.378V270.824H475.654V276.676H489.122V279.252ZM489.318 290.424C489.318 293.252 486.154 295.1 480.638 295.1C475.122 295.1 471.958 293.252 471.958 290.424C471.958 287.54 475.122 285.692 480.61 285.692C486.154 285.692 489.318 287.54 489.318 290.424ZM485.958 290.452C485.958 289.136 483.858 288.324 480.61 288.324C477.39 288.324 475.318 289.136 475.318 290.452C475.318 291.712 477.39 292.496 480.61 292.496C483.858 292.496 485.958 291.712 485.958 290.452ZM506.293 281.716L506.713 284.208C504.529 284.712 501.029 284.88 497.697 284.88C496.605 284.88 495.569 284.852 494.477 284.852V276.872H502.177V274.52H494.477V271.916H505.453V279.336H497.781V282.304C500.721 282.304 504.417 282.22 506.293 281.716ZM514.189 285.608H510.941V281.772H507.217V279.14H510.941V276.536H507.217V273.876H510.941V270.264H514.189V285.608ZM497.221 286.868H514.217V295.24H510.941V289.472H497.221V286.868Z" fill="#B37600"/>
<path d="M303.18 92.264V101.868H306.764V104.556H303.18V117.212H299.932V92.264H303.18ZM298.7 108.812C298.028 109.624 297.44 110.436 296.768 111.248C294.724 109.932 291.84 106.992 291 104.276C290.188 107.104 287.668 110.24 285.092 111.752C284.42 110.94 283.776 110.156 283.076 109.372C287.136 106.768 289.264 102.764 289.264 97.78V94.364H292.652V97.612C292.652 102.54 294.92 106.404 298.7 108.812ZM330.962 101.112H327.406V106.936H324.13V92.264H327.406V98.424H330.962V101.112ZM327.406 116.904H311.11V108.224H327.406V116.904ZM324.102 114.328V110.772H314.358V114.328H324.102ZM321.918 102.904L322.226 105.424C320.098 105.956 315.506 106.32 312.118 106.32H308.786V98.396H316.57V96.072H308.674V93.468H319.874V100.86H312.09V103.716C315.142 103.8 319.874 103.436 321.918 102.904ZM362.04 106.404H352.352V108C357 108.308 359.66 109.988 359.66 112.48C359.66 115.252 356.412 116.96 350.756 116.96C345.128 116.96 341.88 115.252 341.88 112.48C341.88 109.988 344.512 108.308 349.076 108V106.404H339.5V103.772H362.04V106.404ZM360.892 100.272L359.492 102.876C355.852 102.568 352.212 100.636 350.756 98.228C349.496 100.692 345.996 102.54 342.048 102.876C341.6 102.008 341.124 101.168 340.676 100.328C344.568 100.16 347.956 98.564 348.824 96.044H341.824V93.44H359.8V96.044H352.772C353.78 98.564 357.56 100.132 360.892 100.272ZM356.328 112.508C356.328 111.248 354.116 110.548 350.728 110.548C347.368 110.548 345.212 111.248 345.212 112.508C345.212 113.712 347.368 114.412 350.728 114.412C354.116 114.412 356.328 113.712 356.328 112.508ZM381.087 92.264H384.363V106.544H381.087V92.264ZM384.363 116.904H367.815V107.748H384.363V116.904ZM381.087 114.356V110.268H371.119V114.356H381.087ZM378.931 103.072L377.083 105.62C375.179 104.92 372.575 102.904 371.483 100.608C370.755 103.156 368.067 105.536 365.743 106.348L363.755 103.744C367.395 102.428 369.747 99.404 369.747 95.652V93.524H373.163V95.484C373.163 99.376 376.019 102.148 378.931 103.072ZM392.293 99.824C392.293 101.672 393.637 103.1 395.877 103.1C398.145 103.1 399.489 101.672 399.489 99.824C399.489 98.06 398.145 96.632 395.877 96.632C393.637 96.632 392.293 98.06 392.293 99.824ZM409.009 92.264V117.212H405.761V92.264H409.009ZM388.933 99.852C388.933 96.352 391.677 93.86 395.877 93.86C400.105 93.86 402.793 96.352 402.793 99.852C402.793 103.324 400.105 105.844 395.877 105.844C391.677 105.844 388.933 103.324 388.933 99.852ZM404.725 110.828C402.345 111.136 398.957 111.416 396.297 111.556C393.525 111.668 390.557 111.78 388.457 111.752L387.981 108.952C390.865 108.952 393.273 108.924 396.101 108.812C399.209 108.7 402.233 108.476 404.445 108.196L404.725 110.828ZM439.023 92.264V101.868H442.607V104.556H439.023V117.212H435.775V92.264H439.023ZM434.543 108.812C433.871 109.624 433.283 110.436 432.611 111.248C430.567 109.932 427.683 106.992 426.843 104.276C426.031 107.104 423.511 110.24 420.935 111.752C420.263 110.94 419.619 110.156 418.919 109.372C422.979 106.768 425.107 102.764 425.107 97.78V94.364H428.495V97.612C428.495 102.54 430.763 106.404 434.543 108.812ZM466.302 113.712H443.762V111.108H451.854V102.708H455.13V111.108H466.302V113.712ZM463.726 94.448C463.838 100.72 463.53 105.284 462.662 108.588L459.526 108.196C460.31 105.312 460.506 100.524 460.422 97.08H446.17V94.448H463.726Z" fill="#B37600"/>
<path d="M248.724 249.212H245.616V224.264H248.724V249.212ZM243.74 248.064H240.688V235.52H237.328V232.86H240.688V224.74H243.74V248.064ZM240.1 240.812L238.252 243.136C236.6 242.128 234.36 239.636 233.716 237.172C233.016 239.776 231.14 242.352 228.816 243.752L226.884 241.512C230.048 239.468 232.12 235.716 232.12 230.396V226.672H235.256V230.368C235.256 235.212 237.076 238.992 240.1 240.812ZM269.087 224.264H272.363V238.544H269.087V224.264ZM272.363 248.904H255.815V239.748H272.363V248.904ZM269.087 246.356V242.268H259.119V246.356H269.087ZM266.931 235.072L265.083 237.62C263.179 236.92 260.575 234.904 259.483 232.608C258.755 235.156 256.067 237.536 253.743 238.348L251.755 235.744C255.395 234.428 257.747 231.404 257.747 227.652V225.524H261.163V227.484C261.163 231.376 264.019 234.148 266.931 235.072ZM290.233 231.292H275.757V228.744H290.233V231.292ZM289.029 236.584C289.029 239.244 286.509 241.12 283.149 241.12C279.733 241.12 277.213 239.244 277.213 236.584C277.213 233.952 279.705 231.992 283.149 231.992C286.509 231.992 289.029 233.952 289.029 236.584ZM279.453 227.568V225.076H286.873V227.568H279.453ZM295.469 224.264V232.328H298.941V235.044H295.469V242.8H292.193V224.264H295.469ZM296.057 248.624H279.005V242.044H282.309V246.02H296.057V248.624ZM280.461 236.584C280.461 237.704 281.693 238.488 283.149 238.488C284.577 238.488 285.837 237.704 285.837 236.584C285.837 235.408 284.577 234.596 283.149 234.596C281.693 234.596 280.461 235.408 280.461 236.584ZM250.432 274.456H247.268V282.8H244.02V264.264H247.268V271.74H250.432V274.456ZM247.912 288.54H230.86V281.204H234.164V285.936H247.912V288.54ZM242.872 278.74C241.08 278.936 237.748 279.272 235.116 279.356C232.232 279.468 229.012 279.608 227.36 279.608L226.94 276.948C228.424 276.948 230.104 276.92 231.728 276.892V271.88H234.976V276.808C237.216 276.752 240.968 276.5 242.62 276.248L242.872 278.74ZM241.22 266.028C241.22 270.144 241.052 272.944 240.52 274.904L237.412 274.456C237.748 273.196 237.916 270.984 237.916 268.632H228.48V266.028H241.22ZM271.999 289.016H254.779V282.716H267.939V281.428H254.751V278.824H271.243V285.068H258.055V286.384H271.999V289.016ZM252.287 270.844V268.324H265.419V270.844H260.687C261.219 273.224 263.543 274.512 265.895 275.044L264.299 277.564C262.227 277.004 259.875 275.464 258.895 273.588C258.111 275.576 255.731 277.536 253.155 278.32L251.335 275.856C254.247 275.072 256.487 273.336 257.019 270.844H252.287ZM274.771 272.608H271.243V277.536H267.967V264.264H271.243V269.92H274.771V272.608ZM255.227 267.036V264.544H262.479V267.036H255.227ZM288.665 275.716L289.085 278.208C286.901 278.712 283.401 278.88 280.069 278.88C278.977 278.88 277.941 278.852 276.849 278.852V270.872H284.549V268.52H276.849V265.916H287.825V273.336H280.153V276.304C283.093 276.304 286.789 276.22 288.665 275.716ZM296.561 279.608H293.313V275.772H289.589V273.14H293.313V270.536H289.589V267.876H293.313V264.264H296.561V279.608ZM279.593 280.868H296.589V289.24H293.313V283.472H279.593V280.868Z" fill="#B37600"/>
<path d="M235.743 464.936H217.459V462.332H221.127L220.427 456.564L223.703 456.172L224.207 462.332H229.191L230.087 456.228L233.251 456.732L232.215 462.332H235.743V464.936ZM237.927 471.936H215.387V469.332H237.927V471.936ZM235.799 454.772H217.403V452.168H235.799V454.772ZM260.025 465.608H252.465V469.5H262.153V472.104H239.613V469.5H249.189V465.608H242.497V457.348H256.049V454.464H242.357V451.86H259.297V459.952H245.745V462.976H260.025V465.608ZM285.064 475.212H281.956V450.264H285.064V475.212ZM280.08 474.064H277.028V461.52H273.668V458.86H277.028V450.74H280.08V474.064ZM276.44 466.812L274.592 469.136C272.94 468.128 270.7 465.636 270.056 463.172C269.356 465.776 267.48 468.352 265.156 469.752L263.224 467.512C266.388 465.468 268.46 461.716 268.46 456.396V452.672H271.596V456.368C271.596 461.212 273.416 464.992 276.44 466.812ZM310.607 471.964H288.067V469.36H310.607V471.964ZM310.131 461.744L308.479 464.292C305.063 463.508 300.751 460.904 299.323 457.628C298.035 460.988 293.583 463.648 290.139 464.404L288.599 461.744C292.687 461.156 297.643 457.852 297.643 453.428V451.776H301.059V453.428C301.059 457.824 306.323 461.1 310.131 461.744ZM262.545 500.456H259.381V508.8H256.133V490.264H259.381V497.74H262.545V500.456ZM260.025 514.54H242.973V507.204H246.277V511.936H260.025V514.54ZM254.985 504.74C253.193 504.936 249.861 505.272 247.229 505.356C244.345 505.468 241.125 505.608 239.473 505.608L239.053 502.948C240.537 502.948 242.217 502.92 243.841 502.892V497.88H247.089V502.808C249.329 502.752 253.081 502.5 254.733 502.248L254.985 504.74ZM253.333 492.028C253.333 496.144 253.165 498.944 252.633 500.904L249.525 500.456C249.861 499.196 250.029 496.984 250.029 494.632H240.593V492.028H253.333ZM281.2 490.264H284.448V515.212H281.2V490.264ZM279.016 506.084L279.38 508.688C276.748 509.22 272.1 509.5 267.872 509.5H265.24V499.14H273.332V494.996H265.128V492.392H276.636V501.744H268.488V506.812C270.868 506.812 275.824 506.672 279.016 506.084Z" fill="#B37600"/>
<path d="M346.707 606.36C346.707 608.964 343.487 610.672 338.671 610.672C333.855 610.672 330.663 608.964 330.663 606.36C330.663 603.728 333.855 601.992 338.671 601.992C343.487 601.992 346.707 603.728 346.707 606.36ZM349.927 616.272H327.387V613.668H332.903V610.924H336.067V613.668H341.219V610.924H344.383V613.668H349.927V616.272ZM348.555 601.18H328.759V598.604H348.555V601.18ZM343.375 606.36C343.375 605.1 341.191 604.428 338.671 604.428C336.179 604.428 333.967 605.1 333.967 606.36C333.967 607.62 336.179 608.292 338.671 608.292C341.191 608.292 343.375 607.62 343.375 606.36ZM334.219 597.316V594.74H343.039V597.316H334.219ZM374.657 607.172H371.353V619.212H368.105V594.264H371.353V604.484H374.657V607.172ZM366.901 613.36C364.577 613.668 360.909 613.948 357.997 614.116C355.421 614.228 353.377 614.284 351.445 614.284L351.025 611.624C352.817 611.624 354.469 611.624 356.149 611.596V604.568H359.285V611.456C362.337 611.288 364.661 611.12 366.649 610.868L366.901 613.36ZM365.753 596.98C365.753 601.824 365.501 605.24 364.913 607.872L361.777 607.536C362.253 605.324 362.421 602.188 362.421 599.612H352.593V596.98H365.753ZM376.708 598.52V595.832H389.868V598.52H385.08C385.22 602.244 387.824 604.68 390.624 605.604L388.832 608.152C386.956 607.48 384.492 605.548 383.428 603.252C382.672 605.688 380.04 608.012 377.632 608.852L375.7 606.276C379.256 605.016 381.636 602.272 381.72 598.52H376.708ZM379.592 610.168H396.504V619.24H393.2V612.744H379.592V610.168ZM396.476 608.88H393.2V602.972H389.504V600.34H393.2V594.264H396.476V608.88ZM420.675 612.352H417.427V594.264H420.675V612.352ZM421.235 618.54H403.931V610.56H407.235V615.964H421.235V618.54ZM400.851 602.272C400.851 598.744 403.511 596.112 407.599 596.112C411.715 596.112 414.347 598.744 414.347 602.272C414.347 605.856 411.715 608.404 407.599 608.404C403.511 608.404 400.851 605.856 400.851 602.272ZM404.211 602.272C404.211 604.26 405.499 605.716 407.599 605.716C409.755 605.716 411.015 604.26 411.015 602.272C411.015 600.368 409.755 598.912 407.599 598.912C405.499 598.912 404.211 600.368 404.211 602.272ZM287.94 636.812C287.912 645.184 284.16 651.316 276.74 655.18L274.864 652.688C278.364 651.092 281.22 648.516 282.9 645.268L275.816 646.024C275.648 645.072 275.508 644.148 275.368 643.196C278.196 643 281.108 642.804 283.936 642.58C284.244 641.6 284.384 640.564 284.468 639.528H276.572V636.812H287.94ZM295.892 659.212H292.616V646.696H287.884V643.952H292.616V634.264H295.892V659.212ZM319.167 635.244V645.324H302.367V635.244H319.167ZM308.023 659.24H304.747V650.952H299.483V648.32H322.023V650.952H316.647V659.24H313.371V650.952H308.023V659.24ZM315.919 642.72V637.848H305.643V642.72H315.919ZM344.289 634.264V659.212H341.069V634.264H344.289ZM338.521 649.216L338.941 651.848C335.917 652.632 330.317 652.968 327.377 652.968H325.081V636.756H328.329V650.168C331.717 650.168 335.805 649.86 338.521 649.216ZM358.716 637.204C358.716 644.484 355.664 650.504 349.616 654.704L347.712 652.436C350.512 650.588 352.668 648.348 354.012 645.604L348.524 646.276L348.048 643.56L354.964 642.972C355.216 641.992 355.384 640.928 355.468 639.836H349.112V637.204H358.716ZM364.176 658.064H361.096V646.696H358.072V644.064H361.096V634.74H364.176V658.064ZM369.16 659.212H366.052V634.264H369.16V659.212ZM392.77 659.212H389.522V634.264H392.77V659.212ZM372.862 644.904C372.862 639.64 375.242 635.972 379.302 635.972C383.39 635.972 385.77 639.64 385.77 644.904C385.77 650.112 383.39 653.78 379.302 653.78C375.242 653.78 372.862 650.14 372.862 644.904ZM382.634 644.904C382.634 640.956 381.234 638.604 379.302 638.604C377.426 638.604 376.054 640.956 376.054 644.904C376.054 648.824 377.426 651.148 379.302 651.148C381.234 651.148 382.634 648.824 382.634 644.904ZM413.749 640.34H409.997V637.736H413.749V634.264H417.025V652.352H413.749V645.324H409.997V642.692H413.749V640.34ZM417.557 658.54H400.589V650.7H403.865V655.964H417.557V658.54ZM411.229 646.836L409.381 649.412C407.477 648.712 404.873 646.192 403.781 643.896C403.053 646.416 400.365 649.244 397.985 650.056L396.053 647.452C399.693 646.108 402.073 642.636 402.073 638.856V635.692H405.461V638.716C405.461 642.524 408.345 645.912 411.229 646.836ZM450.511 648.012H427.971V645.408H450.511V648.012ZM447.739 643.252H430.995V634.824H434.271V640.676H447.739V643.252ZM447.935 654.424C447.935 657.252 444.771 659.1 439.255 659.1C433.739 659.1 430.575 657.252 430.575 654.424C430.575 651.54 433.739 649.692 439.227 649.692C444.771 649.692 447.935 651.54 447.935 654.424ZM444.575 654.452C444.575 653.136 442.475 652.324 439.227 652.324C436.007 652.324 433.935 653.136 433.935 654.452C433.935 655.712 436.007 656.496 439.227 656.496C442.475 656.496 444.575 655.712 444.575 654.452ZM464.909 645.716L465.329 648.208C463.145 648.712 459.645 648.88 456.313 648.88C455.221 648.88 454.185 648.852 453.093 648.852V640.872H460.793V638.52H453.093V635.916H464.069V643.336H456.397V646.304C459.337 646.304 463.033 646.22 464.909 645.716ZM472.805 649.608H469.557V645.772H465.833V643.14H469.557V640.536H465.833V637.876H469.557V634.264H472.805V649.608ZM455.837 650.868H472.833V659.24H469.557V653.472H455.837V650.868Z" fill="#B37600"/>
<path d="M450.428 486.956H433.908V477.688H450.428V486.956ZM442.644 463.884C442.616 470.66 438.052 475.588 431.472 477.492L429.876 474.916C432.536 474.272 435.168 472.9 436.96 470.884L430.548 471.528L429.988 468.896L438.612 468.28C438.836 467.748 439.004 467.216 439.116 466.6H431.108V463.884H442.644ZM447.152 471.136H442.56V468.448H447.152V462.316H450.428V476.428H447.152V471.136ZM447.152 484.408V480.18H437.184V484.408H447.152ZM462.587 487.236H459.311V479.172H454.019V476.568H476.559V479.172H471.155V487.236H467.879V479.172H462.587V487.236ZM474.207 474.636H456.231V472.06H459.955L459.311 467.524L462.559 467.216L463.035 472.06H467.739L468.383 467.244L471.575 467.692L470.791 472.06H474.207V474.636ZM474.067 466.264H456.399V463.66H474.067V466.264ZM482.445 479.032C485.413 479.088 489.277 479.06 492.105 478.36L492.469 480.852C489.893 481.44 485.581 481.72 481.605 481.692L479.225 481.664V464.472H490.677V467.076H482.445V471.304H489.613V473.908H482.445V479.032ZM498.853 487.264H495.605V474.02H491.433V471.22H495.605V462.316H498.853V487.264ZM530.435 487.348H512.879V482.084H526.319V480.992H512.823V478.808H529.595V484.072H516.183V485.192H530.435V487.348ZM525.171 477.212C520.803 477.8 513.271 478.08 509.827 478.08L509.407 475.588C511.451 475.588 513.663 475.588 515.819 475.56V474.72C513.131 474.44 511.507 473.32 511.507 471.724C511.507 469.764 513.747 468.476 517.415 468.476C521.083 468.476 523.323 469.764 523.323 471.724C523.323 473.32 521.755 474.412 519.095 474.72V475.448C521.167 475.336 523.211 475.168 524.975 474.916L525.171 477.212ZM532.703 472.144H529.595V477.66H526.319V462.316H529.595V469.428H532.703V472.144ZM524.443 467.944H510.387V465.648H524.443V467.944ZM514.027 464.78V462.54H520.999V464.78H514.027ZM520.159 471.724C520.159 471.052 519.179 470.632 517.415 470.632C515.679 470.632 514.699 471.052 514.699 471.724C514.699 472.312 515.679 472.788 517.415 472.788C519.179 472.788 520.159 472.312 520.159 471.724ZM536.602 467.692C536.602 464.92 539.738 462.876 545.31 462.876C550.938 462.876 554.046 464.92 554.046 467.692C554.046 469.232 553.066 470.548 551.218 471.416V474.356H556.594V476.96H534.054V474.356H539.318V471.332C537.554 470.464 536.602 469.176 536.602 467.692ZM554.018 482.616C554.018 485.5 550.854 487.292 545.338 487.292C539.822 487.292 536.658 485.5 536.658 482.616C536.658 479.788 539.822 477.996 545.31 477.996C550.854 477.996 554.018 479.788 554.018 482.616ZM539.99 467.692C539.99 469.008 541.95 469.96 545.31 469.96C548.614 469.96 550.686 469.008 550.686 467.692C550.686 466.32 548.726 465.368 545.31 465.368C541.95 465.368 539.99 466.32 539.99 467.692ZM550.658 482.644C550.658 481.356 548.558 480.6 545.31 480.6C542.09 480.6 540.018 481.356 540.018 482.644C540.018 483.932 542.09 484.688 545.31 484.688C548.558 484.688 550.658 483.932 550.658 482.644ZM545.338 472.48C544.358 472.48 543.434 472.396 542.594 472.284V474.356H547.942V472.312C547.13 472.424 546.262 472.48 545.338 472.48ZM492.35 511.064H469.81V508.46H492.35V511.064ZM489.578 506.304H472.834V497.876H476.11V503.728H489.578V506.304ZM489.774 517.476C489.774 520.304 486.61 522.152 481.094 522.152C475.578 522.152 472.414 520.304 472.414 517.476C472.414 514.592 475.578 512.744 481.066 512.744C486.61 512.744 489.774 514.592 489.774 517.476ZM486.414 517.504C486.414 516.188 484.314 515.376 481.066 515.376C477.846 515.376 475.774 516.188 475.774 517.504C475.774 518.764 477.846 519.548 481.066 519.548C484.314 519.548 486.414 518.764 486.414 517.504ZM506.748 508.768L507.168 511.26C504.984 511.764 501.484 511.932 498.152 511.932C497.06 511.932 496.024 511.904 494.932 511.904V503.924H502.632V501.572H494.932V498.968H505.908V506.388H498.236V509.356C501.176 509.356 504.872 509.272 506.748 508.768ZM514.644 512.66H511.396V508.824H507.672V506.192H511.396V503.588H507.672V500.928H511.396V497.316H514.644V512.66ZM497.676 513.92H514.672V522.292H511.396V516.524H497.676V513.92Z" fill="#B37600"/>
<path d="M624.992 345.06C624.992 347.972 621.744 350.1 616.284 350.1C610.796 350.1 607.604 347.972 607.604 345.06C607.604 342.204 610.796 340.076 616.256 340.076C621.744 340.076 624.992 342.204 624.992 345.06ZM615.416 358.668H612.168V354.132H605V351.528H627.54V354.132H621.94V358.668H618.692V354.132H615.416V358.668ZM624.936 363.54H607.856V356.512H611.132V360.936H624.936V363.54ZM621.604 345.088C621.604 343.576 619.56 342.568 616.256 342.568C613.036 342.568 610.964 343.576 610.964 345.088C610.964 346.572 613.036 347.552 616.256 347.552C619.56 347.552 621.604 346.572 621.604 345.088ZM646.587 339.264H649.835V364.212H646.587V339.264ZM644.403 355.084L644.767 357.688C642.135 358.22 637.487 358.5 633.259 358.5H630.627V348.14H638.719V343.996H630.515V341.392H642.023V350.744H633.875V355.812C636.255 355.812 641.211 355.672 644.403 355.084ZM654.321 343.52V340.832H667.481V343.52H662.693C662.833 347.244 665.437 349.68 668.237 350.604L666.445 353.152C664.569 352.48 662.105 350.548 661.041 348.252C660.285 350.688 657.653 353.012 655.245 353.852L653.313 351.276C656.869 350.016 659.249 347.272 659.333 343.52H654.321ZM657.205 355.168H674.117V364.24H670.813V357.744H657.205V355.168ZM674.089 353.88H670.813V347.972H667.117V345.34H670.813V339.264H674.089V353.88ZM626.224 389.496H623.088V383.364H621.072V389.272H618.02V374.712H621.072V380.76H623.088V374.264H626.224V389.496ZM605.672 381.684V379.136H616.648V381.684H612.924C613.26 384.148 614.828 385.772 617.208 386.612C616.648 387.396 616.144 388.236 615.584 389.048C614.016 388.488 612 386.892 611.3 385.156C610.656 387.004 608.808 388.852 606.624 389.72L604.776 387.312C607.716 386.136 609.228 384.26 609.592 381.684H605.672ZM608.892 390.644H626.224V399.24H622.948V393.248H608.892V390.644ZM607.996 377.764V375.188H614.464V377.764H607.996ZM646.587 374.264H649.835V388.32H646.587V374.264ZM649.835 398.904H633.427V389.636H649.835V398.904ZM646.587 396.356V392.156H636.703V396.356H646.587ZM630.123 381.628C630.123 378.184 633.007 375.608 636.703 375.608C640.399 375.608 643.311 378.128 643.311 381.628C643.311 385.156 640.455 387.424 636.703 387.424C633.035 387.424 630.123 385.156 630.123 381.628ZM633.259 381.6C633.259 383.532 634.631 384.904 636.703 384.904C638.691 384.904 640.175 383.504 640.175 381.6C640.175 379.752 638.859 378.324 636.703 378.324C634.603 378.324 633.259 379.808 633.259 381.6ZM676.525 382.72H672.969V388.152H669.665V374.264H672.969V380.06H676.525V382.72ZM672.969 398.904H656.813V389.356H672.969V398.904ZM669.693 396.356V391.904H660.089V396.356H669.693ZM665.997 375.776C665.885 382.664 661.433 386.808 654.769 388.404L653.173 385.8C657.233 385.1 661.657 382.664 662.385 378.464H654.377V375.776H665.997Z" fill="#B37600"/>
<path d="M90.792 336.171V345.579H94.376V348.295H90.792V361.119H87.516V336.171H90.792ZM75.504 352.635C79.06 352.635 82.532 352.523 85.36 351.879C85.5 352.747 85.584 353.643 85.724 354.483C83.316 355.099 79.536 355.323 74.664 355.323H72.256V338.467H83.652V341.099H75.504V352.635ZM118.155 342.247H115.047V345.047H118.155V347.679H115.047V350.759H111.715V336.171H115.047V339.559H118.155V342.247ZM115.327 356.051C115.327 359.103 112.191 361.091 106.759 361.091C101.411 361.091 98.2465 359.103 98.2465 356.051C98.2465 352.943 101.411 350.983 106.759 350.983C112.191 350.983 115.327 352.943 115.327 356.051ZM106.759 353.615C103.511 353.615 101.607 354.539 101.607 356.051C101.607 357.563 103.511 358.459 106.759 358.459C110.091 358.459 111.995 357.563 111.995 356.051C111.995 354.539 110.091 353.615 106.759 353.615ZM95.6425 343.507C95.6425 340.091 98.4705 337.571 102.083 337.571C105.695 337.571 108.551 340.035 108.551 343.507C108.551 347.035 105.723 349.247 102.083 349.247C98.5265 349.247 95.6425 347.035 95.6425 343.507ZM98.8345 343.479C98.8345 345.411 100.151 346.783 102.083 346.783C104.043 346.783 105.415 345.383 105.415 343.479C105.415 341.687 104.127 340.231 102.083 340.231C100.123 340.231 98.8345 341.715 98.8345 343.479ZM134.037 343.199H119.561V340.651H134.037V343.199ZM132.833 348.491C132.833 351.151 130.313 353.027 126.953 353.027C123.537 353.027 121.017 351.151 121.017 348.491C121.017 345.859 123.509 343.899 126.953 343.899C130.313 343.899 132.833 345.859 132.833 348.491ZM123.257 339.475V336.983H130.677V339.475H123.257ZM139.273 336.171V344.235H142.745V346.951H139.273V354.707H135.997V336.171H139.273ZM139.861 360.531H122.809V353.951H126.113V357.927H139.861V360.531ZM124.265 348.491C124.265 349.611 125.497 350.395 126.953 350.395C128.381 350.395 129.641 349.611 129.641 348.491C129.641 347.315 128.381 346.503 126.953 346.503C125.497 346.503 124.265 347.315 124.265 348.491ZM79.8267 384.555H76.5507V379.459H73.2467V376.827H76.5507V371.171H79.8267V384.555ZM79.8547 395.811H63.3907V385.843H66.6947V388.307H76.5507V385.787H79.8547V395.811ZM76.5507 393.207V390.827H66.6947V393.207H76.5507ZM59.3587 378.255C59.3587 374.811 62.0747 372.291 65.8267 372.291C69.5227 372.291 72.2667 374.755 72.2667 378.255C72.2667 381.783 69.5227 383.967 65.8267 383.967C62.0747 383.967 59.3587 381.783 59.3587 378.255ZM62.6347 378.199C62.6347 380.159 64.0347 381.251 65.8267 381.251C67.5627 381.251 69.0187 380.159 69.0187 378.199C69.0187 376.127 67.6187 374.979 65.8267 374.979C63.9787 374.979 62.6347 376.239 62.6347 378.199ZM103.101 372.151V382.231H86.3012V372.151H103.101ZM96.2692 396.147H92.9932V387.859H83.4172V385.255H105.957V387.859H96.2692V396.147ZM99.8532 379.627V374.755H89.5772V379.627H99.8532ZM123.24 387.635L121.42 390.183C119.208 389.063 116.156 385.899 115.4 383.491C114.812 386.011 112.292 389.343 109.38 390.771L107.42 388.335C111.62 386.095 113.664 382.231 113.664 376.995V376.323H108.68V373.719H121.924V376.323H117.108V376.967C117.108 382.231 119.488 385.703 123.24 387.635ZM128.28 396.119H125.004V371.171H128.28V396.119ZM146.066 376.603C146.066 379.291 143.462 381.195 139.822 381.195C136.182 381.195 133.494 379.291 133.494 376.547C133.494 373.915 136.182 371.955 139.822 371.955C143.462 371.955 146.066 373.915 146.066 376.603ZM144.89 387.943V385.591H149.65V371.171H152.926V390.463H149.65V387.943H144.89ZM153.318 395.447H135.006V388.083H138.282V392.843H153.318V395.447ZM142.37 389.259H139.122V384.807C136.518 384.891 134.082 384.919 132.206 384.919C132.066 384.079 131.926 383.183 131.758 382.343C137.89 382.343 144.162 382.035 147.662 381.587L147.858 383.995C146.15 384.275 144.302 384.443 142.37 384.583V389.259ZM142.818 376.603C142.818 375.511 141.67 374.391 139.822 374.391C137.918 374.391 136.798 375.511 136.798 376.603C136.798 377.695 137.918 378.731 139.822 378.731C141.67 378.731 142.818 377.695 142.818 376.603Z" fill="#B37600"/>
</svg>
