<svg width="750" height="736" viewBox="0 0 750 736" fill="none" xmlns="http://www.w3.org/2000/svg">
<path d="M749.5 370.845C749.5 488.428 654.089 583.747 536.392 583.747C418.696 583.747 323.285 488.428 323.285 370.845C323.285 253.263 418.696 157.943 536.392 157.943C654.089 157.943 749.5 253.263 749.5 370.845Z" stroke="#B37600"/>
<path d="M587.158 522.598C587.158 640.18 491.747 735.5 374.051 735.5C256.354 735.5 160.943 640.18 160.943 522.598C160.943 405.016 256.354 309.696 374.051 309.696C491.747 309.696 587.158 405.016 587.158 522.598Z" stroke="#B37600"/>
<path d="M426.715 370.845C426.715 488.428 331.304 583.747 213.608 583.747C95.9111 583.747 0.5 488.428 0.5 370.845C0.5 253.263 95.9111 157.943 213.608 157.943C331.304 157.943 426.715 253.263 426.715 370.845Z" stroke="#B37600"/>
<path d="M587.158 213.402C587.158 330.984 491.747 426.304 374.051 426.304C256.354 426.304 160.943 330.984 160.943 213.402C160.943 95.82 256.354 0.5 374.051 0.5C491.747 0.5 587.158 95.82 587.158 213.402Z" stroke="#B37600"/>
<path d="M338.907 372.55L335.112 367.33C336.372 365.635 337.647 363.94 338.922 362.26H340.827L337.137 367.135C338.442 368.935 339.747 370.735 341.037 372.55H338.907ZM333.087 372.55V362.26H334.932V372.55H333.087ZM342.609 372.55V362.26H344.469V372.55H342.609ZM346.944 372.55V362.26H349.539L352.044 370.015H352.089L354.594 362.26H357.174V372.55H355.329V364.555H355.269L352.689 372.55H351.174L348.609 364.555H348.564V372.55H346.944ZM363.526 372.55V362.26H366.121L368.626 370.015H368.671L371.176 362.26H373.756V372.55H371.911V364.555H371.851L369.271 372.55H367.756L365.191 364.555H365.146V372.55H363.526ZM376.213 372.55V362.26H378.073V372.55H376.213ZM380.548 372.55V362.26H382.618L386.893 369.52H386.938V362.26H388.573V372.55H386.743L382.228 364.795H382.183V372.55H380.548ZM396.313 372.64C395.368 372.64 394.783 372.49 394.258 372.22V370.855C394.663 370.99 395.233 371.14 395.923 371.14C396.943 371.14 397.453 370.63 397.453 369.595V362.26H399.328V369.745C399.328 371.395 398.398 372.64 396.313 372.64ZM401.716 372.55V362.26H403.576V372.55H401.716ZM406.051 372.55V362.26H408.121L412.396 369.52H412.441V362.26H414.076V372.55H412.246L407.731 364.795H407.686V372.55H406.051Z" fill="#B37600"/>
<path d="M348.503 105.869V108.473H325.963V105.869H348.503ZM331.927 99.9051C331.927 101.249 333.859 102.201 337.219 102.201C340.523 102.201 342.567 101.249 342.567 99.9051C342.567 98.5611 340.635 97.6651 337.219 97.6651C333.859 97.6651 331.927 98.5611 331.927 99.9051ZM328.567 99.9051C328.567 97.1611 331.675 95.1451 337.219 95.1451C342.819 95.1451 345.927 97.1611 345.927 99.9051C345.927 102.677 342.819 104.693 337.247 104.693C331.675 104.693 328.567 102.677 328.567 99.9051ZM345.955 114.689C345.955 117.517 342.763 119.309 337.247 119.309C331.731 119.309 328.539 117.517 328.539 114.689C328.539 111.833 331.731 110.013 337.219 110.013C342.763 110.013 345.955 111.833 345.955 114.689ZM342.567 114.717C342.567 113.429 340.495 112.617 337.219 112.617C333.999 112.617 331.899 113.429 331.899 114.717C331.899 115.977 333.999 116.705 337.219 116.705C340.495 116.705 342.567 115.977 342.567 114.717ZM371.413 119.449H368.277V106.933H366.065V118.301H362.985V94.9491H366.065V104.329H368.277V94.5011H371.413V119.449ZM354.193 110.853C356.741 110.937 359.737 110.713 361.417 110.293L361.725 112.869C359.849 113.373 356.181 113.541 353.297 113.541H350.917V97.4691H360.353V100.073C358.309 100.073 356.265 100.045 354.193 100.045V110.853ZM396.956 108.249H374.416V105.645H396.956V108.249ZM394.184 103.489H377.44V95.0611H380.716V100.913H394.184V103.489ZM394.38 114.661C394.38 117.489 391.216 119.337 385.7 119.337C380.184 119.337 377.02 117.489 377.02 114.661C377.02 111.777 380.184 109.929 385.672 109.929C391.216 109.929 394.38 111.777 394.38 114.661ZM391.02 114.689C391.02 113.373 388.92 112.561 385.672 112.561C382.452 112.561 380.38 113.373 380.38 114.689C380.38 115.949 382.452 116.733 385.672 116.733C388.92 116.733 391.02 115.949 391.02 114.689ZM411.355 105.953L411.775 108.445C409.591 108.949 406.091 109.117 402.759 109.117C401.667 109.117 400.631 109.089 399.539 109.089V101.109H407.239V98.7571H399.539V96.1531H410.515V103.573H402.843V106.541C405.783 106.541 409.479 106.457 411.355 105.953ZM419.251 109.845H416.003V106.009H412.279V103.377H416.003V100.773H412.279V98.1131H416.003V94.5011H419.251V109.845ZM402.283 111.105H419.279V119.477H416.003V113.709H402.283V111.105Z" fill="#B37600"/>
<path d="M447.608 269.305H444.304V255.557H439.796V252.785H444.304V244.357H447.608V269.305ZM442.12 261.297L440.244 263.761C438.172 262.501 435.344 259.365 434.504 256.761C433.692 259.617 431.144 262.781 428.54 264.181L426.58 261.773C430.584 259.169 432.768 255.221 432.768 250.265V246.457H436.128V250.097C436.128 255.025 438.368 258.889 442.12 261.297ZM471.779 269.305H468.531V244.357H471.779V269.305ZM464.191 263.145H452.403V246.373H455.651V252.365H460.887V246.317H464.191V263.145ZM460.887 260.569V254.941H455.651V260.569H460.887ZM497.937 266.057H475.397V263.453H497.937V266.057ZM497.461 255.837L495.809 258.385C492.393 257.601 488.081 254.997 486.653 251.721C485.365 255.081 480.913 257.741 477.469 258.497L475.929 255.837C480.017 255.249 484.973 251.945 484.973 247.521V245.869H488.389V247.521C488.389 251.917 493.653 255.193 497.461 255.837ZM522.575 260.821L520.755 263.369C518.543 262.249 515.491 259.085 514.735 256.677C514.147 259.197 511.627 262.529 508.715 263.957L506.755 261.521C510.955 259.281 512.999 255.417 512.999 250.181V249.509H508.015V246.905H521.259V249.509H516.443V250.153C516.443 255.417 518.823 258.889 522.575 260.821ZM527.615 269.305H524.339V244.357H527.615V269.305ZM550.974 265.021C550.974 267.849 547.782 269.417 542.434 269.417C537.114 269.417 533.922 267.849 533.922 265.021C533.922 262.221 537.114 260.653 542.434 260.653C547.782 260.653 550.974 262.221 550.974 265.021ZM544.394 255.949C544.394 258.441 541.874 260.093 538.486 260.093C535.042 260.093 532.466 258.441 532.466 255.949C532.466 253.485 535.014 251.833 538.486 251.833C541.874 251.833 544.394 253.485 544.394 255.949ZM554.026 254.185V256.817H550.722V260.429H547.418V244.357H550.722V249.089H554.026V251.721H550.722V254.185H554.026ZM545.654 251.217H531.178V248.669H545.654V251.217ZM542.434 263.145C539.158 263.145 537.282 263.929 537.282 265.049C537.282 266.141 539.158 266.925 542.434 266.925C545.738 266.925 547.614 266.141 547.614 265.049C547.614 263.929 545.738 263.145 542.434 263.145ZM534.79 247.577V245.029H542.182V247.577H534.79ZM535.77 255.949C535.77 256.985 537.002 257.685 538.486 257.685C539.914 257.685 541.146 256.985 541.146 255.949C541.146 254.941 539.914 254.213 538.486 254.213C536.974 254.213 535.77 254.941 535.77 255.949Z" fill="#B37600"/>
<path d="M242.528 269.305H239.42V244.357H242.528V269.305ZM237.544 268.157H234.492V255.613H231.132V252.953H234.492V244.833H237.544V268.157ZM233.904 260.905L232.056 263.229C230.404 262.221 228.164 259.729 227.52 257.265C226.82 259.869 224.944 262.445 222.62 263.845L220.688 261.605C223.852 259.561 225.924 255.809 225.924 250.489V246.765H229.06V250.461C229.06 255.305 230.88 259.085 233.904 260.905ZM262.891 244.357H266.167V258.637H262.891V244.357ZM266.167 268.997H249.619V259.841H266.167V268.997ZM262.891 266.449V262.361H252.923V266.449H262.891ZM260.735 255.165L258.887 257.713C256.983 257.013 254.379 254.997 253.287 252.701C252.559 255.249 249.871 257.629 247.547 258.441L245.559 255.837C249.199 254.521 251.551 251.497 251.551 247.745V245.617H254.967V247.577C254.967 251.469 257.823 254.241 260.735 255.165ZM292.689 254.101H289.273V259.645H285.997V244.357H289.273V251.469H292.689V254.101ZM289.273 268.997H273.089V260.877H289.273V268.997ZM285.969 266.449V263.397H276.365V266.449H285.969ZM284.149 250.965H269.561V248.417H284.149V250.965ZM273.285 247.325V244.777H280.677V247.325H273.285ZM282.889 255.809C282.889 258.357 280.341 260.065 276.953 260.065C273.537 260.065 270.961 258.357 270.961 255.809C270.961 253.233 273.509 251.497 276.953 251.497C280.341 251.497 282.889 253.233 282.889 255.809ZM274.265 255.809C274.265 256.845 275.497 257.601 276.953 257.601C278.409 257.601 279.669 256.845 279.669 255.809C279.669 254.717 278.409 254.017 276.953 254.017C275.469 254.017 274.265 254.717 274.265 255.809Z" fill="#B37600"/>
<path d="M234.38 494.841H217.216V488.149H230.348V486.413H217.076V483.837H233.596V490.501H220.492V492.209H234.38V494.841ZM233.596 482.577H230.348V470.089H233.596V482.577ZM213.716 476.725C213.716 473.393 216.516 470.929 220.352 470.929C224.16 470.929 226.932 473.337 226.932 476.725C226.932 480.057 224.16 482.297 220.352 482.297C216.656 482.297 213.716 480.141 213.716 476.725ZM216.964 476.697C216.964 478.377 218.42 479.581 220.352 479.581C222.396 479.581 223.684 478.237 223.684 476.697C223.684 474.989 222.452 473.617 220.352 473.617C218.504 473.617 216.964 475.017 216.964 476.697ZM258.019 490.053C258.019 493.077 254.799 494.981 249.283 494.981C243.767 494.981 240.547 493.077 240.547 490.053C240.547 486.945 243.767 485.041 249.283 485.041C254.799 485.041 258.019 486.945 258.019 490.053ZM238.083 474.541V471.853H251.215V474.541H246.483C246.735 478.013 249.255 480.337 251.971 481.233C251.411 482.101 250.795 482.941 250.207 483.809C248.303 483.081 245.867 481.205 244.803 478.937C244.047 481.345 241.415 483.697 239.007 484.537C238.335 483.669 237.719 482.829 237.047 481.989C240.547 480.729 242.843 478.097 243.039 474.541H238.083ZM250.823 478.685V476.053H254.575V470.089H257.851V484.929H254.575V478.685H250.823ZM249.283 487.673C245.895 487.673 243.907 488.541 243.907 490.053C243.907 491.509 245.895 492.377 249.283 492.377C252.727 492.377 254.687 491.509 254.687 490.053C254.687 488.541 252.727 487.673 249.283 487.673ZM284.373 480.281H281.209V488.625H277.961V470.089H281.209V477.565H284.373V480.281ZM281.853 494.365H264.801V487.029H268.105V491.761H281.853V494.365ZM276.813 484.565C275.021 484.761 271.689 485.097 269.057 485.181C266.173 485.293 262.953 485.433 261.301 485.433L260.881 482.773C262.365 482.773 264.045 482.745 265.669 482.717V477.705H268.917V482.633C271.157 482.577 274.909 482.325 276.561 482.073L276.813 484.565ZM275.161 471.853C275.161 475.969 274.993 478.769 274.461 480.729L271.353 480.281C271.689 479.021 271.857 476.809 271.857 474.457H262.421V471.853H275.161ZM303.028 470.089H306.276V495.037H303.028V470.089ZM300.844 485.909L301.208 488.513C298.576 489.045 293.928 489.325 289.7 489.325H287.068V478.965H295.16V474.821H286.956V472.217H298.464V481.569H290.316V486.637C292.696 486.637 297.652 486.497 300.844 485.909Z" fill="#B37600"/>
<path d="M345.507 610.463V619.479H328.931V610.463H345.507ZM339.095 628.999H335.819V624.407H325.963V621.803H348.503V624.407H339.095V628.999ZM345.899 633.787H328.847V626.647H332.123V631.211H345.899V633.787ZM342.231 616.875V613.067H332.235V616.875H342.231ZM370.853 634.459H367.549V620.711H363.041V617.939H367.549V609.511H370.853V634.459ZM365.365 626.451L363.489 628.915C361.417 627.655 358.589 624.519 357.749 621.915C356.937 624.771 354.389 627.935 351.785 629.335L349.825 626.927C353.829 624.323 356.013 620.375 356.013 615.419V611.611H359.373V615.251C359.373 620.179 361.613 624.043 365.365 626.451ZM374.724 613.767V611.107H387.856V613.767H383.096C383.376 617.323 385.896 619.703 388.668 620.599L386.876 623.203C384.944 622.447 382.536 620.571 381.444 618.275C380.716 620.683 378.084 623.063 375.676 623.875L373.744 621.327C377.216 620.067 379.568 617.379 379.736 613.767H374.724ZM377.552 625.303H393.96V634.487H390.656V627.907H377.552V625.303ZM397.488 618.107H393.932V624.043H390.628V609.511H393.932V615.419H397.488V618.107ZM419.279 624.071H416.003V617.295H411.747V614.691H416.003V609.511H419.279V624.071ZM413.567 620.571L411.691 623.119C409.815 622.363 407.239 620.375 406.147 618.051C405.391 620.599 402.675 622.951 400.351 623.735L398.391 621.131C402.003 619.815 404.411 616.903 404.411 613.123V610.659H407.799V612.955C407.799 616.819 410.655 619.619 413.567 620.571ZM419.447 629.419C419.447 632.443 416.311 634.431 410.851 634.431C405.475 634.431 402.367 632.443 402.367 629.419C402.367 626.311 405.475 624.351 410.851 624.351C416.311 624.351 419.447 626.311 419.447 629.419ZM410.851 626.983C407.631 626.983 405.727 627.907 405.727 629.419C405.727 630.903 407.631 631.799 410.851 631.799C414.211 631.799 416.059 630.903 416.059 629.419C416.059 627.907 414.211 626.983 410.851 626.983Z" fill="#B37600"/>
<path d="M450.428 486.956H433.908V477.688H450.428V486.956ZM442.644 463.884C442.616 470.66 438.052 475.588 431.472 477.492L429.876 474.916C432.536 474.272 435.168 472.9 436.96 470.884L430.548 471.528L429.988 468.896L438.612 468.28C438.836 467.748 439.004 467.216 439.116 466.6H431.108V463.884H442.644ZM447.152 471.136H442.56V468.448H447.152V462.316H450.428V476.428H447.152V471.136ZM447.152 484.408V480.18H437.184V484.408H447.152ZM462.587 487.236H459.311V479.172H454.019V476.568H476.559V479.172H471.155V487.236H467.879V479.172H462.587V487.236ZM474.207 474.636H456.231V472.06H459.955L459.311 467.524L462.559 467.216L463.035 472.06H467.739L468.383 467.244L471.575 467.692L470.791 472.06H474.207V474.636ZM474.067 466.264H456.399V463.66H474.067V466.264ZM482.445 479.032C485.413 479.088 489.277 479.06 492.105 478.36L492.469 480.852C489.893 481.44 485.581 481.72 481.605 481.692L479.225 481.664V464.472H490.677V467.076H482.445V471.304H489.613V473.908H482.445V479.032ZM498.853 487.264H495.605V474.02H491.433V471.22H495.605V462.316H498.853V487.264ZM530.435 487.348H512.879V482.084H526.319V480.992H512.823V478.808H529.595V484.072H516.183V485.192H530.435V487.348ZM525.171 477.212C520.803 477.8 513.271 478.08 509.827 478.08L509.407 475.588C511.451 475.588 513.663 475.588 515.819 475.56V474.72C513.131 474.44 511.507 473.32 511.507 471.724C511.507 469.764 513.747 468.476 517.415 468.476C521.083 468.476 523.323 469.764 523.323 471.724C523.323 473.32 521.755 474.412 519.095 474.72V475.448C521.167 475.336 523.211 475.168 524.975 474.916L525.171 477.212ZM532.703 472.144H529.595V477.66H526.319V462.316H529.595V469.428H532.703V472.144ZM524.443 467.944H510.387V465.648H524.443V467.944ZM514.027 464.78V462.54H520.999V464.78H514.027ZM520.159 471.724C520.159 471.052 519.179 470.632 517.415 470.632C515.679 470.632 514.699 471.052 514.699 471.724C514.699 472.312 515.679 472.788 517.415 472.788C519.179 472.788 520.159 472.312 520.159 471.724ZM536.602 467.692C536.602 464.92 539.738 462.876 545.31 462.876C550.938 462.876 554.046 464.92 554.046 467.692C554.046 469.232 553.066 470.548 551.218 471.416V474.356H556.594V476.96H534.054V474.356H539.318V471.332C537.554 470.464 536.602 469.176 536.602 467.692ZM554.018 482.616C554.018 485.5 550.854 487.292 545.338 487.292C539.822 487.292 536.658 485.5 536.658 482.616C536.658 479.788 539.822 477.996 545.31 477.996C550.854 477.996 554.018 479.788 554.018 482.616ZM539.99 467.692C539.99 469.008 541.95 469.96 545.31 469.96C548.614 469.96 550.686 469.008 550.686 467.692C550.686 466.32 548.726 465.368 545.31 465.368C541.95 465.368 539.99 466.32 539.99 467.692ZM550.658 482.644C550.658 481.356 548.558 480.6 545.31 480.6C542.09 480.6 540.018 481.356 540.018 482.644C540.018 483.932 542.09 484.688 545.31 484.688C548.558 484.688 550.658 483.932 550.658 482.644ZM545.338 472.48C544.358 472.48 543.434 472.396 542.594 472.284V474.356H547.942V472.312C547.13 472.424 546.262 472.48 545.338 472.48ZM492.35 511.064H469.81V508.46H492.35V511.064ZM489.578 506.304H472.834V497.876H476.11V503.728H489.578V506.304ZM489.774 517.476C489.774 520.304 486.61 522.152 481.094 522.152C475.578 522.152 472.414 520.304 472.414 517.476C472.414 514.592 475.578 512.744 481.066 512.744C486.61 512.744 489.774 514.592 489.774 517.476ZM486.414 517.504C486.414 516.188 484.314 515.376 481.066 515.376C477.846 515.376 475.774 516.188 475.774 517.504C475.774 518.764 477.846 519.548 481.066 519.548C484.314 519.548 486.414 518.764 486.414 517.504ZM506.748 508.768L507.168 511.26C504.984 511.764 501.484 511.932 498.152 511.932C497.06 511.932 496.024 511.904 494.932 511.904V503.924H502.632V501.572H494.932V498.968H505.908V506.388H498.236V509.356C501.176 509.356 504.872 509.272 506.748 508.768ZM514.644 512.66H511.396V508.824H507.672V506.192H511.396V503.588H507.672V500.928H511.396V497.316H514.644V512.66ZM497.676 513.92H514.672V522.292H511.396V516.524H497.676V513.92Z" fill="#B37600"/>
<path d="M627.022 371.321H623.886V365.189H621.87V371.097H618.818V356.537H621.87V362.585H623.886V356.089H627.022V371.321ZM606.47 363.509V360.961H617.446V363.509H613.722C614.058 365.973 615.626 367.597 618.006 368.437C617.446 369.221 616.942 370.061 616.382 370.873C614.814 370.313 612.798 368.717 612.098 366.981C611.454 368.829 609.606 370.677 607.422 371.545L605.574 369.137C608.514 367.961 610.026 366.085 610.39 363.509H606.47ZM609.69 372.469H627.022V381.065H623.746V375.073H609.69V372.469ZM608.794 359.589V357.013H615.262V359.589H608.794ZM647.384 356.089H650.632V370.145H647.384V356.089ZM650.632 380.729H634.224V371.461H650.632V380.729ZM647.384 378.181V373.981H637.5V378.181H647.384ZM630.92 363.453C630.92 360.009 633.804 357.433 637.5 357.433C641.196 357.433 644.108 359.953 644.108 363.453C644.108 366.981 641.252 369.249 637.5 369.249C633.832 369.249 630.92 366.981 630.92 363.453ZM634.056 363.425C634.056 365.357 635.428 366.729 637.5 366.729C639.488 366.729 640.972 365.329 640.972 363.425C640.972 361.577 639.656 360.149 637.5 360.149C635.4 360.149 634.056 361.633 634.056 363.425ZM677.323 364.545H673.767V369.977H670.463V356.089H673.767V361.885H677.323V364.545ZM673.767 380.729H657.611V371.181H673.767V380.729ZM670.491 378.181V373.729H660.887V378.181H670.491ZM666.795 357.601C666.683 364.489 662.231 368.633 655.567 370.229L653.971 367.625C658.031 366.925 662.455 364.489 663.183 360.289H655.175V357.601H666.795Z" fill="#B37600"/>
<path d="M90.792 336.171V345.579H94.376V348.295H90.792V361.119H87.516V336.171H90.792ZM75.504 352.635C79.06 352.635 82.532 352.523 85.36 351.879C85.5 352.747 85.584 353.643 85.724 354.483C83.316 355.099 79.536 355.323 74.664 355.323H72.256V338.467H83.652V341.099H75.504V352.635ZM118.155 342.247H115.047V345.047H118.155V347.679H115.047V350.759H111.715V336.171H115.047V339.559H118.155V342.247ZM115.327 356.051C115.327 359.103 112.191 361.091 106.759 361.091C101.411 361.091 98.2465 359.103 98.2465 356.051C98.2465 352.943 101.411 350.983 106.759 350.983C112.191 350.983 115.327 352.943 115.327 356.051ZM106.759 353.615C103.511 353.615 101.607 354.539 101.607 356.051C101.607 357.563 103.511 358.459 106.759 358.459C110.091 358.459 111.995 357.563 111.995 356.051C111.995 354.539 110.091 353.615 106.759 353.615ZM95.6425 343.507C95.6425 340.091 98.4705 337.571 102.083 337.571C105.695 337.571 108.551 340.035 108.551 343.507C108.551 347.035 105.723 349.247 102.083 349.247C98.5265 349.247 95.6425 347.035 95.6425 343.507ZM98.8345 343.479C98.8345 345.411 100.151 346.783 102.083 346.783C104.043 346.783 105.415 345.383 105.415 343.479C105.415 341.687 104.127 340.231 102.083 340.231C100.123 340.231 98.8345 341.715 98.8345 343.479ZM134.037 343.199H119.561V340.651H134.037V343.199ZM132.833 348.491C132.833 351.151 130.313 353.027 126.953 353.027C123.537 353.027 121.017 351.151 121.017 348.491C121.017 345.859 123.509 343.899 126.953 343.899C130.313 343.899 132.833 345.859 132.833 348.491ZM123.257 339.475V336.983H130.677V339.475H123.257ZM139.273 336.171V344.235H142.745V346.951H139.273V354.707H135.997V336.171H139.273ZM139.861 360.531H122.809V353.951H126.113V357.927H139.861V360.531ZM124.265 348.491C124.265 349.611 125.497 350.395 126.953 350.395C128.381 350.395 129.641 349.611 129.641 348.491C129.641 347.315 128.381 346.503 126.953 346.503C125.497 346.503 124.265 347.315 124.265 348.491ZM79.8267 384.555H76.5507V379.459H73.2467V376.827H76.5507V371.171H79.8267V384.555ZM79.8547 395.811H63.3907V385.843H66.6947V388.307H76.5507V385.787H79.8547V395.811ZM76.5507 393.207V390.827H66.6947V393.207H76.5507ZM59.3587 378.255C59.3587 374.811 62.0747 372.291 65.8267 372.291C69.5227 372.291 72.2667 374.755 72.2667 378.255C72.2667 381.783 69.5227 383.967 65.8267 383.967C62.0747 383.967 59.3587 381.783 59.3587 378.255ZM62.6347 378.199C62.6347 380.159 64.0347 381.251 65.8267 381.251C67.5627 381.251 69.0187 380.159 69.0187 378.199C69.0187 376.127 67.6187 374.979 65.8267 374.979C63.9787 374.979 62.6347 376.239 62.6347 378.199ZM103.101 372.151V382.231H86.3012V372.151H103.101ZM96.2692 396.147H92.9932V387.859H83.4172V385.255H105.957V387.859H96.2692V396.147ZM99.8532 379.627V374.755H89.5772V379.627H99.8532ZM123.24 387.635L121.42 390.183C119.208 389.063 116.156 385.899 115.4 383.491C114.812 386.011 112.292 389.343 109.38 390.771L107.42 388.335C111.62 386.095 113.664 382.231 113.664 376.995V376.323H108.68V373.719H121.924V376.323H117.108V376.967C117.108 382.231 119.488 385.703 123.24 387.635ZM128.28 396.119H125.004V371.171H128.28V396.119ZM146.066 376.603C146.066 379.291 143.462 381.195 139.822 381.195C136.182 381.195 133.494 379.291 133.494 376.547C133.494 373.915 136.182 371.955 139.822 371.955C143.462 371.955 146.066 373.915 146.066 376.603ZM144.89 387.943V385.591H149.65V371.171H152.926V390.463H149.65V387.943H144.89ZM153.318 395.447H135.006V388.083H138.282V392.843H153.318V395.447ZM142.37 389.259H139.122V384.807C136.518 384.891 134.082 384.919 132.206 384.919C132.066 384.079 131.926 383.183 131.758 382.343C137.89 382.343 144.162 382.035 147.662 381.587L147.858 383.995C146.15 384.275 144.302 384.443 142.37 384.583V389.259ZM142.818 376.603C142.818 375.511 141.67 374.391 139.822 374.391C137.918 374.391 136.798 375.511 136.798 376.603C136.798 377.695 137.918 378.731 139.822 378.731C141.67 378.731 142.818 377.695 142.818 376.603Z" fill="#B37600"/>
</svg>
